<?xml version="1.0" encoding="UTF-8" standalone="no"?>
<svg width="120px" height="40px" viewBox="0 0 120 40" version="1.1" xmlns="http://www.w3.org/2000/svg" xmlns:xlink="http://www.w3.org/1999/xlink" xmlns:sketch="http://www.bohemiancoding.com/sketch/ns">
    <!-- Generator: Sketch 3.4 (15575) - http://www.bohemiancoding.com/sketch -->
    <title>statusbar-middle-black</title>
    <desc>Created with Sketch.</desc>
    <defs></defs>
    <g id="Page-1" stroke="none" stroke-width="1" fill="none" fill-rule="evenodd" sketch:type="MSPage">
        <g id="statusbar-middle-black" sketch:type="MSArtboardGroup" fill="#000000">
            <path d="M19.6542969,23.9453125 C19.7167972,25.1093808 20.1660114,25.9140603 21.0019531,26.359375 C21.4316428,26.5937512 21.9160129,26.7109375 22.4550781,26.7109375 C23.4628957,26.7109375 24.3222621,26.2910198 25.0332031,25.4511719 C25.7441442,24.6113239 26.2480454,22.9062629 26.5449219,20.3359375 C26.0761695,21.0781287 25.4960972,21.5996079 24.8046875,21.9003906 C24.1132778,22.2011734 23.3691446,22.3515625 22.5722656,22.3515625 C20.95507,22.3515625 19.675786,21.8476613 18.734375,20.8398438 C17.792964,19.8320262 17.3222656,18.5351642 17.3222656,16.9492188 C17.3222656,15.4257736 17.7871047,14.0859433 18.7167969,12.9296875 C19.646489,11.7734317 21.0175691,11.1953125 22.8300781,11.1953125 C25.2754029,11.1953125 26.962886,12.296864 27.8925781,14.5 C28.4082057,15.7109436 28.6660156,17.2265534 28.6660156,19.046875 C28.6660156,21.1015728 28.357425,22.9218671 27.7402344,24.5078125 C26.7167918,27.1484507 24.9824341,28.46875 22.5371094,28.46875 C20.8964762,28.46875 19.6503949,28.0390668 18.7988281,27.1796875 C17.9472614,26.3203082 17.5214844,25.242194 17.5214844,23.9453125 L19.6542969,23.9453125 Z M25.1445312,19.6738281 C25.835941,19.1230441 26.1816406,18.1601631 26.1816406,16.7851562 C26.1816406,15.5507751 25.8710969,14.6308624 25.25,14.0253906 C24.6289031,13.4199188 23.8378954,13.1171875 22.8769531,13.1171875 C21.845698,13.1171875 21.0273468,13.4628872 20.421875,14.1542969 C19.8164032,14.8457066 19.5136719,15.7695255 19.5136719,16.9257812 C19.5136719,18.0195367 19.7792942,18.8886687 20.3105469,19.5332031 C20.8417995,20.1777376 21.6894473,20.5 22.8535156,20.5 C23.6894573,20.5 24.4531215,20.2246121 25.1445312,19.6738281 L25.1445312,19.6738281 Z M32.4746094,15.6132812 L34.9238281,15.6132812 L34.9238281,18.1679688 L32.4746094,18.1679688 L32.4746094,15.6132812 Z M32.4746094,25.4453125 L34.9238281,25.4453125 L34.9238281,28 L32.4746094,28 L32.4746094,25.4453125 Z M38.1289062,24.2265625 C38.6484401,23.1562446 39.6621018,22.1835981 41.1699219,21.3085938 L43.4199219,20.0078125 C44.4277394,19.4218721 45.1347636,18.9218771 45.5410156,18.5078125 C46.1816438,17.8593718 46.5019531,17.1171917 46.5019531,16.28125 C46.5019531,15.3046826 46.2089873,14.5292997 45.6230469,13.9550781 C45.0371064,13.3808565 44.2558643,13.09375 43.2792969,13.09375 C41.8339771,13.09375 40.8339871,13.6406195 40.2792969,14.734375 C39.9824204,15.3203154 39.8183595,16.1328073 39.7871094,17.171875 L37.6425781,17.171875 C37.6660157,15.7109302 37.9355443,14.5195359 38.4511719,13.5976562 C39.3652389,11.9726481 40.9785041,11.1601562 43.2910156,11.1601562 C45.2129002,11.1601562 46.6171831,11.6796823 47.5039062,12.71875 C48.3906294,13.7578177 48.8339844,14.9140561 48.8339844,16.1875 C48.8339844,17.5312567 48.3613329,18.6796827 47.4160156,19.6328125 C46.8691379,20.1875028 45.8886789,20.8593711 44.4746094,21.6484375 L42.8691406,22.5390625 C42.1035118,22.9609396 41.5019553,23.3632793 41.0644531,23.7460938 C40.2831992,24.4257846 39.7910166,25.1796834 39.5878906,26.0078125 L48.7519531,26.0078125 L48.7519531,28 L37.2324219,28 C37.3105473,26.5546803 37.6093724,25.2968804 38.1289062,24.2265625 L38.1289062,24.2265625 Z M51.7460938,26.8222656 C50.851558,25.7324164 50.4042969,24.4062578 50.4042969,22.84375 L52.6074219,22.84375 C52.7011723,23.9296929 52.9042953,24.7187475 53.2167969,25.2109375 C53.7636746,26.0937544 54.751946,26.5351562 56.1816406,26.5351562 C57.2910212,26.5351562 58.1816373,26.2382842 58.8535156,25.6445312 C59.525394,25.0507783 59.8613281,24.2851609 59.8613281,23.3476562 C59.8613281,22.1914005 59.507816,21.3828148 58.8007812,20.921875 C58.0937465,20.4609352 57.1113344,20.2304688 55.8535156,20.2304688 C55.7128899,20.2304688 55.5703132,20.2324219 55.4257812,20.2363281 C55.2812493,20.2402344 55.1347664,20.2460937 54.9863281,20.2539062 L54.9863281,18.390625 C55.2050792,18.4140626 55.3886711,18.4296875 55.5371094,18.4375 C55.6855476,18.4453125 55.8457023,18.4492188 56.0175781,18.4492188 C56.8066446,18.4492188 57.4550756,18.32422 57.9628906,18.0742188 C58.8535201,17.6367166 59.2988281,16.8554744 59.2988281,15.7304688 C59.2988281,14.8945271 59.0019561,14.2500023 58.4082031,13.796875 C57.8144502,13.3437477 57.1230508,13.1171875 56.3339844,13.1171875 C54.9277273,13.1171875 53.9550808,13.5859328 53.4160156,14.5234375 C53.1191391,15.0390651 52.9511721,15.7734327 52.9121094,16.7265625 L50.8261719,16.7265625 C50.8261719,15.4765562 51.0761694,14.4140669 51.5761719,13.5390625 C52.4355512,11.9765547 53.9472548,11.1953125 56.1113281,11.1953125 C57.8222742,11.1953125 59.1464797,11.5761681 60.0839844,12.3378906 C61.0214891,13.0996132 61.4902344,14.2031178 61.4902344,15.6484375 C61.4902344,16.6796927 61.2128934,17.5156218 60.6582031,18.15625 C60.3144514,18.5546895 59.8691434,18.8671864 59.3222656,19.09375 C60.2050825,19.3359387 60.8945288,19.8027309 61.390625,20.4941406 C61.8867212,21.1855503 62.1347656,22.031245 62.1347656,23.03125 C62.1347656,24.6328205 61.6074271,25.937495 60.5527344,26.9453125 C59.4980416,27.95313 58.0019628,28.4570312 56.0644531,28.4570312 C54.0800682,28.4570312 52.6406295,27.9121148 51.7460938,26.8222656 L51.7460938,26.8222656 Z M79.1972656,20.9453125 L76.5839844,13.3398438 L73.8066406,20.9453125 L79.1972656,20.9453125 Z M75.3652344,10.7851562 L78.0019531,10.7851562 L84.2480469,28 L81.6933594,28 L79.9472656,22.84375 L73.1386719,22.84375 L71.2753906,28 L68.8847656,28 L75.3652344,10.7851562 Z M86.3105469,10.7851562 L89.6503906,10.7851562 L94.5957031,25.3398438 L99.5058594,10.7851562 L102.810547,10.7851562 L102.810547,28 L100.595703,28 L100.595703,17.8398438 C100.595703,17.4882795 100.603516,16.9062541 100.619141,16.09375 C100.634766,15.2812459 100.642578,14.4101609 100.642578,13.4804688 L95.7324219,28 L93.4238281,28 L88.4785156,13.4804688 L88.4785156,14.0078125 C88.4785156,14.4296896 88.4882812,15.0722613 88.5078125,15.9355469 C88.5273438,16.7988324 88.5371094,17.4335917 88.5371094,17.8398438 L88.5371094,28 L86.3105469,28 L86.3105469,10.7851562 Z" id="9:23-AM" sketch:type="MSShapeGroup"></path>
        </g>
    </g>
</svg>