<?xml version="1.0" encoding="UTF-8" standalone="no"?>
<svg width="210px" height="40px" viewBox="0 0 210 40" version="1.1" xmlns="http://www.w3.org/2000/svg" xmlns:xlink="http://www.w3.org/1999/xlink" xmlns:sketch="http://www.bohemiancoding.com/sketch/ns">
    <!-- Generator: Sketch 3.4 (15575) - http://www.bohemiancoding.com/sketch -->
    <title>statusbar-right-black</title>
    <desc>Created with Sketch.</desc>
    <defs></defs>
    <g id="Page-1" stroke="none" stroke-width="1" fill="none" fill-rule="evenodd" sketch:type="MSPage">
        <g id="statusbar-right-black" sketch:type="MSArtboardGroup" fill="#000000">
            <path d="M192,11 L153,11 C151.811,11 150,12.795 150,14 L150,27 C150,28.034 151.871,30 153,30 L192,30 C193.145,30 195,28.175 195,27 L195,14 C195,12.827 193.094,11 192,11 L192,11 Z M194,27 C194,27.793 192.804,29 192,29 L153,29 C152.207,29 151,27.803 151,27 L151,14 C151,13.197 152.207,12 153,12 L192,12 C192.804,12 194,13.207 194,14 L194,27 L194,27 Z M152,15 L152,26 C152,27.105 152.895,28 154,28 L179,28 L179,13 L154,13 C152.895,13 152,13.895 152,15 L152,15 Z M196,17 L196,24 C196,24 199,24.578 199,20.5 C199,16.457 196,17 196,17 L196,17 Z" id="battery_x5F_icon_x5F_indicator" sketch:type="MSShapeGroup"></path>
            <path d="M101.904297,12.6074219 C102.642582,13.580083 103.011719,14.5820261 103.011719,15.6132812 L100.925781,15.6132812 C100.800781,14.9492154 100.601564,14.4296894 100.328125,14.0546875 C99.82031,13.351559 99.0507864,13 98.0195312,13 C96.8398379,13 95.9023472,13.5449164 95.2070312,14.6347656 C94.5117153,15.7246148 94.1250004,17.2851461 94.046875,19.3164062 C94.5312524,18.6054652 95.1406213,18.0742205 95.875,17.7226562 C96.5468784,17.4101547 97.2968709,17.2539062 98.125,17.2539062 C99.531257,17.2539062 100.757807,17.7031205 101.804688,18.6015625 C102.851568,19.5000045 103.375,20.8398348 103.375,22.6210938 C103.375,24.1445389 102.878911,25.4941347 101.886719,26.6699219 C100.894526,27.845709 99.4804779,28.4335938 97.6445312,28.4335938 C96.0742109,28.4335938 94.7187557,27.8378966 93.578125,26.6464844 C92.4374943,25.4550722 91.8671875,23.4492329 91.8671875,20.6289062 C91.8671875,18.5429583 92.1210912,16.7734448 92.6289062,15.3203125 C93.6054736,12.5390486 95.390612,11.1484375 97.984375,11.1484375 C99.8593844,11.1484375 101.166012,11.6347608 101.904297,12.6074219 L101.904297,12.6074219 Z M100.322266,25.4394531 C100.87305,24.6933556 101.148438,23.8125051 101.148438,22.796875 C101.148438,21.9374957 100.902346,21.1191445 100.410156,20.3417969 C99.9179663,19.5644492 99.023444,19.1757812 97.7265625,19.1757812 C96.820308,19.1757812 96.025394,19.4765595 95.3417969,20.078125 C94.6581997,20.6796905 94.3164062,21.5859314 94.3164062,22.796875 C94.3164062,23.8593803 94.62695,24.7519495 95.2480469,25.4746094 C95.8691437,26.1972692 96.7304632,26.5585938 97.8320312,26.5585938 C98.9414118,26.5585938 99.7714816,26.1855506 100.322266,25.4394531 L100.322266,25.4394531 Z M115.251953,12.6074219 C115.990238,13.580083 116.359375,14.5820261 116.359375,15.6132812 L114.273438,15.6132812 C114.148437,14.9492154 113.94922,14.4296894 113.675781,14.0546875 C113.167966,13.351559 112.398443,13 111.367188,13 C110.187494,13 109.250003,13.5449164 108.554688,14.6347656 C107.859372,15.7246148 107.472657,17.2851461 107.394531,19.3164062 C107.878909,18.6054652 108.488278,18.0742205 109.222656,17.7226562 C109.894535,17.4101547 110.644527,17.2539062 111.472656,17.2539062 C112.878913,17.2539062 114.105464,17.7031205 115.152344,18.6015625 C116.199224,19.5000045 116.722656,20.8398348 116.722656,22.6210938 C116.722656,24.1445389 116.226567,25.4941347 115.234375,26.6699219 C114.242183,27.845709 112.828134,28.4335938 110.992188,28.4335938 C109.421867,28.4335938 108.066412,27.8378966 106.925781,26.6464844 C105.785151,25.4550722 105.214844,23.4492329 105.214844,20.6289062 C105.214844,18.5429583 105.468747,16.7734448 105.976562,15.3203125 C106.95313,12.5390486 108.738268,11.1484375 111.332031,11.1484375 C113.207041,11.1484375 114.513668,11.6347608 115.251953,12.6074219 L115.251953,12.6074219 Z M113.669922,25.4394531 C114.220706,24.6933556 114.496094,23.8125051 114.496094,22.796875 C114.496094,21.9374957 114.250002,21.1191445 113.757812,20.3417969 C113.265623,19.5644492 112.3711,19.1757812 111.074219,19.1757812 C110.167964,19.1757812 109.37305,19.4765595 108.689453,20.078125 C108.005856,20.6796905 107.664062,21.5859314 107.664062,22.796875 C107.664062,23.8593803 107.974606,24.7519495 108.595703,25.4746094 C109.2168,26.1972692 110.078119,26.5585938 111.179688,26.5585938 C112.289068,26.5585938 113.119138,26.1855506 113.669922,25.4394531 L113.669922,25.4394531 Z M136.902344,21.0390625 C137.699223,21.8359415 138.097656,22.7968694 138.097656,23.921875 C138.097656,25.0468806 137.699223,26.0078085 136.902344,26.8046875 C136.105465,27.6015665 135.144537,28 134.019531,28 C132.886713,28 131.921879,27.6015665 131.125,26.8046875 C130.328121,26.0078085 129.929688,25.0468806 129.929688,23.921875 C129.929688,22.7968694 130.328121,21.8359415 131.125,21.0390625 C131.921879,20.2421835 132.886713,19.84375 134.019531,19.84375 C135.144537,19.84375 136.105465,20.2421835 136.902344,21.0390625 L136.902344,21.0390625 Z M132.320312,11.2890625 L133.621094,11.2890625 L124.234375,28.4453125 L122.933594,28.4453125 L132.320312,11.2890625 Z M124.228516,17.5175781 C124.701174,17.0449195 124.9375,16.4765658 124.9375,15.8125 C124.9375,15.1484342 124.701174,14.5800805 124.228516,14.1074219 C123.755857,13.6347633 123.183597,13.3984375 122.511719,13.3984375 C121.847653,13.3984375 121.279299,13.6328102 120.806641,14.1015625 C120.333982,14.5703148 120.097656,15.1406216 120.097656,15.8125 C120.097656,16.4765658 120.333982,17.0449195 120.806641,17.5175781 C121.279299,17.9902367 121.847653,18.2265625 122.511719,18.2265625 C123.183597,18.2265625 123.755857,17.9902367 124.228516,17.5175781 L124.228516,17.5175781 Z M125.40625,12.9238281 C126.203129,13.7246134 126.601562,14.6874944 126.601562,15.8125 C126.601562,16.9375056 126.203129,17.8984335 125.40625,18.6953125 C124.609371,19.4921915 123.644537,19.890625 122.511719,19.890625 C121.386713,19.890625 120.425785,19.4921915 119.628906,18.6953125 C118.832027,17.8984335 118.433594,16.9375056 118.433594,15.8125 C118.433594,14.6874944 118.832027,13.7246134 119.628906,12.9238281 C120.425785,12.1230429 121.386713,11.7226562 122.511719,11.7226562 C123.644537,11.7226562 124.609371,12.1230429 125.40625,12.9238281 L125.40625,12.9238281 Z M135.724609,25.6269531 C136.197268,25.1542945 136.433594,24.5859408 136.433594,23.921875 C136.433594,23.2578092 136.197268,22.6894555 135.724609,22.2167969 C135.251951,21.7441383 134.683597,21.5078125 134.019531,21.5078125 C133.347653,21.5078125 132.775393,21.7441383 132.302734,22.2167969 C131.830076,22.6894555 131.59375,23.2578092 131.59375,23.921875 C131.59375,24.5859408 131.830076,25.1542945 132.302734,25.6269531 C132.775393,26.0996117 133.347653,26.3359375 134.019531,26.3359375 C134.683597,26.3359375 135.251951,26.0996117 135.724609,25.6269531 L135.724609,25.6269531 Z" id="66%" sketch:type="MSShapeGroup"></path>
        </g>
    </g>
</svg>