<?xml version="1.0" encoding="UTF-8" standalone="no"?>
<svg width="210px" height="40px" viewBox="0 0 210 40" version="1.1" xmlns="http://www.w3.org/2000/svg" xmlns:xlink="http://www.w3.org/1999/xlink" xmlns:sketch="http://www.bohemiancoding.com/sketch/ns">
    <!-- Generator: Sketch 3.4 (15575) - http://www.bohemiancoding.com/sketch -->
    <title>statusbar-left-black</title>
    <desc>Created with Sketch.</desc>
    <defs></defs>
    <g id="Page-1" stroke="none" stroke-width="1" fill="none" fill-rule="evenodd" sketch:type="MSPage">
        <g id="statusbar-left-black" sketch:type="MSArtboardGroup" fill="#000000">
            <path d="M186.5,11 C181.659,11 177.278,12.966 174.11,16.143 L176.231,18.264 C178.857,15.631 182.488,14 186.5,14 C190.408,14 193.948,15.554 196.556,18.068 L198.539,15.821 C195.4,12.84 191.169,11 186.5,11 L186.5,11 Z M182.415,24.448 L186.938,28.971 L190.78,24.616 C189.635,23.613 188.141,23 186.5,23 C184.951,23 183.531,23.544 182.415,24.448 L182.415,24.448 Z M178.353,20.386 L180.474,22.507 C182.013,20.959 184.144,20 186.5,20 C188.886,20 191.04,20.986 192.584,22.57 L194.573,20.315 C192.497,18.267 189.647,17 186.5,17 C183.316,17 180.435,18.295 178.353,20.386 L178.353,20.386 Z" id="wifi_x5F_signal_x5F_indicator" sketch:type="MSShapeGroup"></path>
            <path d="M102.15625,12.0390625 C103.359381,13.1875057 104.027343,14.4921802 104.160156,15.953125 L101.886719,15.953125 C101.628905,14.8437445 101.115238,13.964847 100.345703,13.3164062 C99.576168,12.6679655 98.4961007,12.34375 97.1054688,12.34375 C95.4101478,12.34375 94.0410208,12.9394472 92.9980469,14.1308594 C91.9550729,15.3222716 91.4335938,17.1484252 91.4335938,19.609375 C91.4335938,21.6250101 91.9042922,23.2597594 92.8457031,24.5136719 C93.7871141,25.7675844 95.1913969,26.3945312 97.0585938,26.3945312 C98.7773523,26.3945312 100.085933,25.7343816 100.984375,24.4140625 C101.46094,23.7187465 101.816405,22.8046932 102.050781,21.671875 L104.324219,21.671875 C104.121093,23.4843841 103.449224,25.0039001 102.308594,26.2304688 C100.941399,27.7070386 99.0976679,28.4453125 96.7773438,28.4453125 C94.7773337,28.4453125 93.097663,27.8398498 91.7382812,26.6289062 C89.9492098,25.0273357 89.0546875,22.5547042 89.0546875,19.2109375 C89.0546875,16.6718623 89.7265558,14.5898519 91.0703125,12.9648438 C92.5234448,11.1992099 94.527331,10.3164062 97.0820312,10.3164062 C99.2617296,10.3164062 100.953119,10.8906193 102.15625,12.0390625 L102.15625,12.0390625 Z M109.164062,26.1015625 C109.609377,26.4531268 110.136716,26.6289062 110.746094,26.6289062 C111.488285,26.6289062 112.207028,26.457033 112.902344,26.1132812 C114.074225,25.5429659 114.660156,24.6093815 114.660156,23.3125 L114.660156,21.6132812 C114.402342,21.7773446 114.070315,21.914062 113.664062,22.0234375 C113.25781,22.132813 112.859377,22.2109373 112.46875,22.2578125 L111.191406,22.421875 C110.425777,22.523438 109.851564,22.6835927 109.46875,22.9023438 C108.820309,23.2695331 108.496094,23.8554647 108.496094,24.6601562 C108.496094,25.2695343 108.718748,25.7499982 109.164062,26.1015625 L109.164062,26.1015625 Z M113.605469,20.3945312 C114.089846,20.3320309 114.414062,20.128908 114.578125,19.7851562 C114.671875,19.5976553 114.71875,19.3281268 114.71875,18.9765625 C114.71875,18.2578089 114.462893,17.7363297 113.951172,17.4121094 C113.439451,17.087889 112.707036,16.9257812 111.753906,16.9257812 C110.652338,16.9257812 109.871096,17.2226533 109.410156,17.8164062 C109.152342,18.1445329 108.984375,18.6328093 108.90625,19.28125 L106.9375,19.28125 C106.976563,17.7343673 107.478511,16.6582062 108.443359,16.0527344 C109.408208,15.4472626 110.527337,15.1445312 111.800781,15.1445312 C113.277351,15.1445312 114.476558,15.4257784 115.398438,15.9882812 C116.312505,16.5507841 116.769531,17.4257753 116.769531,18.6132812 L116.769531,25.84375 C116.769531,26.0625011 116.814453,26.2382806 116.904297,26.3710938 C116.994141,26.5039069 117.183592,26.5703125 117.472656,26.5703125 C117.566407,26.5703125 117.671874,26.5644532 117.789062,26.5527344 C117.906251,26.5410156 118.031249,26.5234376 118.164062,26.5 L118.164062,28.0585938 C117.835936,28.1523442 117.585938,28.2109374 117.414062,28.234375 C117.242187,28.2578126 117.007814,28.2695312 116.710938,28.2695312 C115.984371,28.2695312 115.457033,28.0117213 115.128906,27.4960938 C114.95703,27.2226549 114.835938,26.83594 114.765625,26.3359375 C114.335935,26.8984403 113.718754,27.3867167 112.914062,27.8007812 C112.109371,28.2148458 111.222661,28.421875 110.253906,28.421875 C109.089838,28.421875 108.138676,28.0683629 107.400391,27.3613281 C106.662106,26.6542933 106.292969,25.7695366 106.292969,24.7070312 C106.292969,23.5429629 106.656246,22.6406282 107.382812,22 C108.109379,21.3593718 109.062494,20.9648445 110.242188,20.8164062 L113.605469,20.3945312 Z M120.285156,15.4492188 L122.289062,15.4492188 L122.289062,17.6171875 C122.453126,17.1953104 122.855466,16.6816437 123.496094,16.0761719 C124.136722,15.4707001 124.874996,15.1679688 125.710938,15.1679688 C125.75,15.1679688 125.816406,15.171875 125.910156,15.1796875 C126.003907,15.1875 126.164061,15.2031249 126.390625,15.2265625 L126.390625,17.453125 C126.265624,17.4296874 126.150391,17.4140625 126.044922,17.40625 C125.939453,17.3984375 125.824219,17.3945312 125.699219,17.3945312 C124.636713,17.3945312 123.820315,17.7363247 123.25,18.4199219 C122.679685,19.103519 122.394531,19.8906205 122.394531,20.78125 L122.394531,28 L120.285156,28 L120.285156,15.4492188 Z M128.277344,15.4492188 L130.28125,15.4492188 L130.28125,17.6171875 C130.445313,17.1953104 130.847653,16.6816437 131.488281,16.0761719 C132.128909,15.4707001 132.867183,15.1679688 133.703125,15.1679688 C133.742188,15.1679688 133.808593,15.171875 133.902344,15.1796875 C133.996094,15.1875 134.156249,15.2031249 134.382812,15.2265625 L134.382812,17.453125 C134.257812,17.4296874 134.142579,17.4140625 134.037109,17.40625 C133.93164,17.3984375 133.816407,17.3945312 133.691406,17.3945312 C132.628901,17.3945312 131.812503,17.7363247 131.242188,18.4199219 C130.671872,19.103519 130.386719,19.8906205 130.386719,20.78125 L130.386719,28 L128.277344,28 L128.277344,15.4492188 Z M136.210938,15.5078125 L138.355469,15.5078125 L138.355469,28 L136.210938,28 L136.210938,15.5078125 Z M136.210938,10.7851562 L138.355469,10.7851562 L138.355469,13.1757812 L136.210938,13.1757812 L136.210938,10.7851562 Z M149.359375,15.7949219 C150.195317,16.2128927 150.832029,16.7539029 151.269531,17.4179688 C151.691408,18.0507844 151.972656,18.7890583 152.113281,19.6328125 C152.238282,20.2109404 152.300781,21.1328062 152.300781,22.3984375 L143.101562,22.3984375 C143.140625,23.6718814 143.441403,24.6933555 144.003906,25.4628906 C144.566409,26.2324257 145.437494,26.6171875 146.617188,26.6171875 C147.718756,26.6171875 148.597653,26.2539099 149.253906,25.5273438 C149.628908,25.1054666 149.89453,24.6171903 150.050781,24.0625 L152.125,24.0625 C152.070312,24.5234398 151.888673,25.0371065 151.580078,25.6035156 C151.271483,26.1699247 150.925783,26.6328107 150.542969,26.9921875 C149.902341,27.6171906 149.10938,28.0390614 148.164062,28.2578125 C147.656247,28.3828131 147.082034,28.4453125 146.441406,28.4453125 C144.878898,28.4453125 143.554693,27.8769588 142.46875,26.7402344 C141.382807,25.6035099 140.839844,24.011729 140.839844,21.9648438 C140.839844,19.9492087 141.386713,18.3125063 142.480469,17.0546875 C143.574224,15.7968687 145.003897,15.1679688 146.769531,15.1679688 C147.660161,15.1679688 148.523433,15.376951 149.359375,15.7949219 L149.359375,15.7949219 Z M150.132812,20.7226562 C150.046875,19.8085892 149.847658,19.0781277 149.535156,18.53125 C148.957028,17.5156199 147.992194,17.0078125 146.640625,17.0078125 C145.67187,17.0078125 144.859378,17.3574184 144.203125,18.0566406 C143.546872,18.7558629 143.199219,19.6445259 143.160156,20.7226562 L150.132812,20.7226562 Z M154.949219,15.4492188 L156.953125,15.4492188 L156.953125,17.6171875 C157.117188,17.1953104 157.519528,16.6816437 158.160156,16.0761719 C158.800784,15.4707001 159.539058,15.1679688 160.375,15.1679688 C160.414063,15.1679688 160.480468,15.171875 160.574219,15.1796875 C160.667969,15.1875 160.828124,15.2031249 161.054688,15.2265625 L161.054688,17.453125 C160.929687,17.4296874 160.814454,17.4140625 160.708984,17.40625 C160.603515,17.3984375 160.488282,17.3945312 160.363281,17.3945312 C159.300776,17.3945312 158.484378,17.7363247 157.914062,18.4199219 C157.343747,19.103519 157.058594,19.8906205 157.058594,20.78125 L157.058594,28 L154.949219,28 L154.949219,15.4492188 Z" id="Carrier" sketch:type="MSShapeGroup"></path>
            <path d="M46.5,15 C43.462,15 41,17.462 41,20.5 C41,23.538 43.462,26 46.5,26 C49.538,26 52,23.538 52,20.5 C52,17.462 49.538,15 46.5,15 L46.5,15 Z M46.5,25 C44.015,25 42,22.985 42,20.5 C42,18.015 44.015,16 46.5,16 C48.985,16 51,18.015 51,20.5 C51,22.985 48.985,25 46.5,25 L46.5,25 Z M18.5,15 C15.462,15 13,17.462 13,20.5 C13,23.538 15.462,26 18.5,26 C21.538,26 24,23.538 24,20.5 C24,17.462 21.538,15 18.5,15 L18.5,15 Z M32.5,15 C29.462,15 27,17.462 27,20.5 C27,23.538 29.462,26 32.5,26 C35.538,26 38,23.538 38,20.5 C38,17.462 35.538,15 32.5,15 L32.5,15 Z M60.5,15 C57.462,15 55,17.462 55,20.5 C55,23.538 57.462,26 60.5,26 C63.538,26 66,23.538 66,20.5 C66,17.462 63.538,15 60.5,15 L60.5,15 Z M60.5,25 C58.015,25 56,22.985 56,20.5 C56,18.015 58.015,16 60.5,16 C62.985,16 65,18.015 65,20.5 C65,22.985 62.985,25 60.5,25 L60.5,25 Z M74.5,15 C71.462,15 69,17.462 69,20.5 C69,23.538 71.462,26 74.5,26 C77.538,26 80,23.538 80,20.5 C80,17.462 77.538,15 74.5,15 L74.5,15 Z M74.5,25 C72.015,25 70,22.985 70,20.5 C70,18.015 72.015,16 74.5,16 C76.985,16 79,18.015 79,20.5 C79,22.985 76.985,25 74.5,25 L74.5,25 Z" id="signal_x5F_indicator" sketch:type="MSShapeGroup"></path>
        </g>
    </g>
</svg>